/* THIS CHUNK OF BYTES IS AUTOMATICALLY GENERATED */
static const unsigned char song1[] =
{
0x4d, 0x54, 0x68, 0x64, 0x00, 0x00, 0x00, 0x06, 0x00, 0x01, 0x00, 0x0d, 0x00, 0x60, 0x4d, 0x54,
0x72, 0x6b, 0x00, 0x00, 0x00, 0x1a, 0x00, 0xff, 0x7f, 0x03, 0x00, 0x00, 0x41, 0x00, 0xff, 0x58,
0x04, 0x04, 0x02, 0x60, 0x08, 0x00, 0xff, 0x51, 0x03, 0x06, 0x10, 0x26, 0x00, 0xff, 0x2f, 0x00,
0x4d, 0x54, 0x72, 0x6b, 0x00, 0x00, 0x07, 0xeb, 0x00, 0xff, 0x03, 0x05, 0x50, 0x49, 0x41, 0x4e,
0x4f, 0x00, 0xb0, 0x00, 0x00, 0x00, 0xc0, 0x00, 0x00, 0xb0, 0x0a, 0x35, 0x00, 0xb0, 0x5b, 0x28,
0x00, 0xb0, 0x5d, 0x00, 0x00, 0xff, 0x58, 0x04, 0x04, 0x02, 0x60, 0x08, 0x00, 0xff, 0x51, 0x03,
0x06, 0x10, 0x26, 0x00, 0xb0, 0x07, 0x64, 0x00, 0xb0, 0x40, 0x00, 0x00, 0xb0, 0x40, 0x00, 0x00,
0x90, 0x40, 0x57, 0x01, 0x90, 0x37, 0x55, 0x02, 0xb0, 0x40, 0x00, 0x81, 0x6d, 0x90, 0x43, 0x7f,
0x2e, 0x90, 0x48, 0x7d, 0x07, 0x80, 0x43, 0x40, 0x1f, 0x80, 0x48, 0x40, 0x08, 0x90, 0x4c, 0x7d,
0x1c, 0x80, 0x4c, 0x40, 0x17, 0x90, 0x3e, 0x59, 0x01, 0x90, 0x3b, 0x4c, 0x02, 0x90, 0x41, 0x52,
0x00, 0x90, 0x4c, 0x7d, 0x1d, 0x90, 0x4d, 0x59, 0x07, 0x80, 0x4c, 0x40, 0x37, 0x90, 0x4c, 0x6b,
0x06, 0xb0, 0x40, 0x7f, 0x01, 0x80, 0x3e, 0x40, 0x04, 0x80, 0x4d, 0x40, 0x0c, 0xb0, 0x40, 0x00,
0x02, 0x80, 0x3b, 0x40, 0x01, 0xb0, 0x40, 0x7f, 0x04, 0x80, 0x41, 0x40, 0x07, 0x80, 0x4c, 0x40,
0x11, 0x90, 0x4a, 0x6b, 0x17, 0xb0, 0x40, 0x00, 0x16, 0x90, 0x3e, 0x59, 0x01, 0x90, 0x38, 0x4b,
0x02, 0x90, 0x40, 0x59, 0x30, 0x80, 0x4a, 0x40, 0x04, 0x90, 0x48, 0x7f, 0x26, 0x80, 0x37, 0x40,
0x00, 0x80, 0x40, 0x40, 0x14, 0x80, 0x48, 0x40, 0x0b, 0x80, 0x3e, 0x40, 0x02, 0x90, 0x4a, 0x7f,
0x05, 0x80, 0x40, 0x40, 0x06, 0x80, 0x38, 0x40, 0x14, 0x80, 0x4a, 0x40, 0x1d, 0x90, 0x4a, 0x6b,
0x08, 0x90, 0x39, 0x42, 0x00, 0x90, 0x3c, 0x4d, 0x01, 0x90, 0x40, 0x49, 0x0c, 0x90, 0x4b, 0x5b,
0x0a, 0x80, 0x4a, 0x40, 0x09, 0x80, 0x4b, 0x40, 0x01, 0x90, 0x4c, 0x6b, 0x81, 0x1b, 0x80, 0x40,
0x40, 0x04, 0x80, 0x3c, 0x40, 0x02, 0x80, 0x39, 0x40, 0x2e, 0x90, 0x3b, 0x52, 0x02, 0x90, 0x40,
0x59, 0x01, 0x90, 0x37, 0x52, 0x1b, 0x80, 0x40, 0x40, 0x04, 0x80, 0x3b, 0x40, 0x00, 0x80, 0x37,
0x40, 0x3c, 0x90, 0x40, 0x52, 0x00, 0x90, 0x39, 0x4e, 0x02, 0x90, 0x3c, 0x52, 0x03, 0x90, 0x35,
0x4d, 0x81, 0x01, 0x80, 0x4c, 0x40, 0x41, 0x90, 0x48, 0x7f, 0x2c, 0x80, 0x48, 0x40, 0x0a, 0x90,
0x4f, 0x63, 0x17, 0x90, 0x51, 0x6b, 0x03, 0x80, 0x4f, 0x40, 0x1b, 0x80, 0x51, 0x40, 0x19, 0x90,
0x51, 0x7f, 0x34, 0x80, 0x51, 0x40, 0x01, 0x80, 0x35, 0x40, 0x00, 0x90, 0x4f, 0x7d, 0x01, 0x80,
0x39, 0x40, 0x01, 0x80, 0x40, 0x40, 0x07, 0x80, 0x3c, 0x40, 0x1c, 0x80, 0x4f, 0x40, 0x0b, 0x90,
0x3c, 0x45, 0x03, 0x90, 0x40, 0x4e, 0x03, 0x90, 0x37, 0x4b, 0x08, 0x90, 0x4f, 0x7d, 0x36, 0x80,
0x4f, 0x40, 0x00, 0x90, 0x4a, 0x6b, 0x23, 0x80, 0x4a, 0x40, 0x19, 0x90, 0x4a, 0x7d, 0x34, 0x80,
0x4a, 0x40, 0x01, 0x90, 0x48, 0x55, 0x81, 0x0b, 0x80, 0x37, 0x40, 0x05, 0x80, 0x3c, 0x40, 0x0f,
0x80, 0x48, 0x40, 0x0f, 0x80, 0x40, 0x40, 0x16, 0x90, 0x3e, 0x35, 0x01, 0x90, 0x38, 0x31, 0x02,
0x90, 0x3b, 0x39, 0x36, 0x90, 0x47, 0x7f, 0x24, 0x80, 0x47, 0x40, 0x0c, 0x90, 0x48, 0x6b, 0x27,
0x80, 0x48, 0x40, 0x09, 0x90, 0x45, 0x63, 0x20, 0x80, 0x45, 0x40, 0x0e, 0x90, 0x4c, 0x7f, 0x02,
0x90, 0x40, 0x01, 0x2b, 0x80, 0x4c, 0x40, 0x01, 0x90, 0x45, 0x48, 0x10, 0x80, 0x45, 0x40, 0x22,
0x90, 0x4a, 0x7f, 0x06, 0x80, 0x3e, 0x40, 0x15, 0x80, 0x40, 0x40, 0x06, 0x80, 0x3b, 0x40, 0x02,
0x80, 0x38, 0x40, 0x0d, 0x80, 0x4a, 0x40, 0x01, 0x90, 0x48, 0x59, 0x13, 0x90, 0x4a, 0x57, 0x01,
0x80, 0x48, 0x40, 0x17, 0x90, 0x48, 0x5e, 0x02, 0x90, 0x39, 0x35, 0x01, 0x90, 0x3c, 0x49, 0x03,
0x90, 0x40, 0x4b, 0x03, 0x80, 0x4a, 0x40, 0x81, 0x37, 0x80, 0x40, 0x40, 0x02, 0x80, 0x3c, 0x40,
0x01, 0x80, 0x39, 0x40, 0x33, 0x90, 0x3b, 0x59, 0x00, 0x90, 0x40, 0x5e, 0x02, 0x90, 0x37, 0x57,
0x16, 0x80, 0x40, 0x40, 0x02, 0x80, 0x37, 0x40, 0x02, 0x80, 0x3b, 0x40, 0x3f, 0x90, 0x39, 0x50,
0x01, 0x90, 0x35, 0x52, 0x01, 0x90, 0x3c, 0x55, 0x01, 0x90, 0x40, 0x4c, 0x06, 0x80, 0x48, 0x40,
0x81, 0x3a, 0x90, 0x48, 0x7f, 0x2c, 0x90, 0x51, 0x6b, 0x06, 0x80, 0x48, 0x40, 0x21, 0x80, 0x51,
0x40, 0x07, 0x90, 0x53, 0x7f, 0x2d, 0x80, 0x53, 0x40, 0x06, 0x90, 0x54, 0x7f, 0x05, 0x90, 0x53,
0x4b, 0x04, 0x80, 0x53, 0x40, 0x1b, 0x80, 0x54, 0x40, 0x0b, 0x80, 0x35, 0x40, 0x02, 0x90, 0x56,
0x6b, 0x03, 0x80, 0x39, 0x40, 0x0e, 0x80, 0x40, 0x40, 0x01, 0x80, 0x3c, 0x40, 0x0e, 0x80, 0x56,
0x40, 0x14, 0x90, 0x3c, 0x52, 0x01, 0x90, 0x40, 0x4e, 0x00, 0x90, 0x37, 0x4c, 0x81, 0x0d, 0x90,
0x56, 0x7d, 0x0f, 0x90, 0x58, 0x64, 0x07, 0x80, 0x56, 0x40, 0x1a, 0x80, 0x58, 0x40, 0x3a, 0x90,
0x54, 0x7d, 0x2c, 0x90, 0x4f, 0x57, 0x05, 0x80, 0x54, 0x40, 0x23, 0x80, 0x4f, 0x40, 0x01, 0x80,
0x37, 0x40, 0x07, 0x90, 0x4d, 0x6b, 0x02, 0x80, 0x40, 0x40, 0x16, 0x80, 0x4d, 0x40, 0x10, 0x90,
0x4f, 0x7d, 0x00, 0x90, 0x39, 0x4c, 0x02, 0x90, 0x35, 0x48, 0x14, 0x80, 0x4f, 0x40, 0x00, 0x90,
0x51, 0x59, 0x22, 0x90, 0x4d, 0x6b, 0x07, 0x80, 0x51, 0x40, 0x19, 0x80, 0x4d, 0x40, 0x0d, 0x90,
0x48, 0x6b, 0x21, 0x80, 0x48, 0x40, 0x0b, 0x90, 0x3e, 0x57, 0x2e, 0x90, 0x4f, 0x5e, 0x34, 0x90,
0x43, 0x6b, 0x07, 0x80, 0x4f, 0x40, 0x06, 0x80, 0x43, 0x40, 0x24, 0x90, 0x4a, 0x7d, 0x12, 0x90,
0x4c, 0x59, 0x02, 0x80, 0x4a, 0x40, 0x0b, 0x80, 0x39, 0x40, 0x03, 0x80, 0x35, 0x40, 0x03, 0x80,
0x3e, 0x40, 0x11, 0x90, 0x48, 0x63, 0x01, 0x80, 0x4c, 0x40, 0x27, 0x90, 0x40, 0x4b, 0x03, 0x90,
0x37, 0x3c, 0x81, 0x2e, 0x80, 0x40, 0x40, 0x00, 0x80, 0x37, 0x40, 0x01, 0x80, 0x48, 0x40, 0x02,
0x80, 0x3c, 0x40, 0x42, 0x90, 0x4c, 0x7f, 0x19, 0x80, 0x4c, 0x40, 0x0a, 0x90, 0x4d, 0x55, 0x18,
0x90, 0x4c, 0x4d, 0x07, 0x80, 0x4d, 0x40, 0x14, 0x80, 0x4c, 0x40, 0x01, 0x90, 0x4a, 0x4b, 0x10,
0x80, 0x4a, 0x40, 0x0b, 0x90, 0x48, 0x57, 0x15, 0x90, 0x3b, 0x35, 0x01, 0x90, 0x3e, 0x33, 0x02,
0x80, 0x48, 0x40, 0x02, 0x90, 0x38, 0x1f, 0x04, 0x90, 0x47, 0x50, 0x14, 0x80, 0x47, 0x40, 0x09,
0x90, 0x45, 0x50, 0x18, 0x90, 0x43, 0x52, 0x04, 0x80, 0x45, 0x40, 0x0f, 0x80, 0x43, 0x40, 0x26,
0x90, 0x47, 0x7d, 0x16, 0x80, 0x47, 0x40, 0x05, 0x80, 0x3e, 0x40, 0x05, 0x90, 0x44, 0x59, 0x01,
0x80, 0x3b, 0x40, 0x05, 0x80, 0x38, 0x40, 0x0e, 0x80, 0x44, 0x40, 0x11, 0x90, 0x38, 0x35, 0x02,
0x90, 0x3b, 0x4d, 0x01, 0x90, 0x3e, 0x55, 0x4f, 0x80, 0x3e, 0x40, 0x24, 0x80, 0x3b, 0x40, 0x0b,
0x80, 0x38, 0x40, 0x1a, 0x90, 0x39, 0x33, 0x03, 0x90, 0x40, 0x3c, 0x00, 0x90, 0x37, 0x39, 0x03,
0x90, 0x3c, 0x4c, 0x81, 0x02, 0x90, 0x47, 0x57, 0x11, 0x80, 0x47, 0x40, 0x06, 0x90, 0x48, 0x34,
0x0b, 0x90, 0x4c, 0x52, 0x04, 0x80, 0x48, 0x40, 0x0f, 0x90, 0x4f, 0x50, 0x03, 0x80, 0x4c, 0x40,
0x0d, 0x80, 0x4f, 0x40, 0x07, 0x90, 0x53, 0x7f, 0x14, 0x80, 0x53, 0x40, 0x04, 0x90, 0x56, 0x7f,
0x1b, 0x80, 0x56, 0x40, 0x18, 0x90, 0x54, 0x7f, 0x1f, 0x80, 0x54, 0x40, 0x11, 0x90, 0x53, 0x7f,
0x11, 0x80, 0x39, 0x40, 0x09, 0x80, 0x37, 0x40, 0x07, 0x80, 0x53, 0x40, 0x02, 0x80, 0x40, 0x40,
0x0c, 0x90, 0x4f, 0x7f, 0x24, 0x80, 0x4f, 0x40, 0x12, 0x90, 0x39, 0x4c, 0x00, 0x90, 0x40, 0x4b,
0x01, 0x90, 0x35, 0x42, 0x28, 0x90, 0x51, 0x7f, 0x23, 0x80, 0x51, 0x40, 0x12, 0x90, 0x4a, 0x3c,
0x1e, 0x80, 0x4a, 0x40, 0x13, 0x90, 0x48, 0x55, 0x1d, 0x80, 0x48, 0x40, 0x13, 0x90, 0x4f, 0x7d,
0x29, 0x90, 0x4a, 0x52, 0x06, 0x80, 0x4f, 0x40, 0x0b, 0x80, 0x4a, 0x40, 0x02, 0x90, 0x4c, 0x55,
0x20, 0x90, 0x48, 0x5e, 0x04, 0x80, 0x4c, 0x40, 0x1c, 0x80, 0x48, 0x40, 0x01, 0x80, 0x39, 0x40,
0x03, 0x80, 0x40, 0x40, 0x07, 0x80, 0x35, 0x40, 0x04, 0x90, 0x45, 0x55, 0x09, 0x80, 0x3c, 0x40,
0x19, 0x80, 0x45, 0x40, 0x0c, 0x90, 0x43, 0x4d, 0x01, 0x90, 0x39, 0x45, 0x02, 0x90, 0x3c, 0x13,
0x01, 0x90, 0x37, 0x34, 0x02, 0x90, 0x40, 0x2f, 0x4c, 0x80, 0x43, 0x40, 0x07, 0x80, 0x40, 0x40,
0x08, 0x90, 0x45, 0x7d, 0x18, 0x80, 0x3c, 0x40, 0x08, 0x80, 0x45, 0x40, 0x3f, 0x90, 0x3c, 0x48,
0x32, 0x90, 0x43, 0x7d, 0x2e, 0x90, 0x48, 0x59, 0x08, 0x80, 0x39, 0x40, 0x01, 0x80, 0x43, 0x40,
0x08, 0x80, 0x3c, 0x40, 0x03, 0x80, 0x37, 0x40, 0x0d, 0x80, 0x48, 0x40, 0x0d, 0x90, 0x4c, 0x6b,
0x27, 0x80, 0x4c, 0x40, 0x3d, 0x90, 0x38, 0x47, 0x01, 0x90, 0x3e, 0x57, 0x01, 0x90, 0x4d, 0x7f,
0x01, 0x90, 0x43, 0x52, 0x2c, 0x80, 0x4d, 0x40, 0x19, 0x90, 0x4c, 0x6b, 0x1c, 0x80, 0x4c, 0x40,
0x1b, 0x90, 0x4d, 0x6b, 0x0e, 0x90, 0x4f, 0x52, 0x0c, 0x80, 0x4d, 0x40, 0x1f, 0x80, 0x4f, 0x40,
0x09, 0x90, 0x4d, 0x6b, 0x22, 0x80, 0x4d, 0x40, 0x1e, 0x90, 0x48, 0x7d, 0x08, 0x80, 0x3e, 0x40,
0x00, 0x80, 0x43, 0x40, 0x13, 0x80, 0x48, 0x40, 0x03, 0x80, 0x38, 0x40, 0x03, 0x90, 0x4a, 0x63,
0x16, 0x80, 0x4a, 0x40, 0x14, 0x90, 0x4a, 0x5e, 0x17, 0x80, 0x4a, 0x40, 0x01, 0x90, 0x4c, 0x52,
0x75, 0x90, 0x3c, 0x57, 0x01, 0x90, 0x40, 0x52, 0x00, 0x90, 0x37, 0x4d, 0x02, 0x90, 0x39, 0x4b,
0x3f, 0x80, 0x40, 0x40, 0x01, 0x80, 0x3c, 0x40, 0x00, 0x80, 0x37, 0x40, 0x00, 0x80, 0x39, 0x40,
0x1c, 0x90, 0x40, 0x4e, 0x01, 0x90, 0x3c, 0x4e, 0x01, 0x90, 0x37, 0x4c, 0x04, 0x90, 0x39, 0x2b,
0x0f, 0x80, 0x39, 0x40, 0x02, 0x80, 0x3c, 0x40, 0x01, 0x80, 0x40, 0x40, 0x02, 0x80, 0x37, 0x40,
0x24, 0x80, 0x4c, 0x40, 0x26, 0x90, 0x43, 0x52, 0x02, 0x90, 0x39, 0x55, 0x00, 0x90, 0x3e, 0x57,
0x60, 0x90, 0x56, 0x7f, 0x1d, 0x80, 0x56, 0x40, 0x40, 0x90, 0x54, 0x7f, 0x23, 0x80, 0x54, 0x40,
0x0b, 0x90, 0x53, 0x7f, 0x31, 0x90, 0x51, 0x7f, 0x04, 0x80, 0x53, 0x40, 0x2c, 0x80, 0x51, 0x40,
0x01, 0x90, 0x4f, 0x7d, 0x17, 0x80, 0x39, 0x40, 0x0a, 0x80, 0x43, 0x40, 0x0a, 0x90, 0x4d, 0x7d,
0x0a, 0x80, 0x4f, 0x40, 0x0b, 0x80, 0x3e, 0x40, 0x05, 0x80, 0x4d, 0x40, 0x1a, 0x90, 0x3c, 0x52,
0x00, 0x90, 0x4d, 0x6b, 0x01, 0x90, 0x37, 0x4b, 0x03, 0x90, 0x40, 0x4c, 0x05, 0x90, 0x4f, 0x5e,
0x06, 0x80, 0x4d, 0x40, 0x52, 0x80, 0x4f, 0x40, 0x02, 0x90, 0x51, 0x7f, 0x2e, 0x80, 0x51, 0x40,
0x07, 0x90, 0x48, 0x7d, 0x28, 0x80, 0x48, 0x40, 0x39, 0x90, 0x4c, 0x7f, 0x24, 0x80, 0x4c, 0x40,
0x2c, 0x80, 0x3c, 0x40, 0x00, 0x90, 0x4c, 0x7d, 0x0e, 0x80, 0x37, 0x40, 0x09, 0x80, 0x40, 0x40,
0x08, 0x80, 0x4c, 0x40, 0x1c, 0x90, 0x3c, 0x52, 0x01, 0x90, 0x4c, 0x6b, 0x03, 0x90, 0x39, 0x48,
0x01, 0x90, 0x35, 0x3c, 0x00, 0x90, 0x3e, 0x52, 0x11, 0x90, 0x4d, 0x5e, 0x0b, 0x80, 0x4c, 0x40,
0x26, 0x90, 0x4c, 0x6b, 0x0a, 0x80, 0x4d, 0x40, 0x2a, 0x80, 0x4c, 0x40, 0x0e, 0x90, 0x48, 0x6b,
0x2b, 0x80, 0x48, 0x40, 0x12, 0x90, 0x43, 0x6b, 0x52, 0x80, 0x43, 0x40, 0x08, 0x90, 0x4a, 0x7d,
0x32, 0x90, 0x48, 0x7f, 0x01, 0x80, 0x3e, 0x40, 0x01, 0x80, 0x35, 0x40, 0x01, 0x80, 0x4a, 0x40,
0x01, 0x80, 0x3c, 0x40, 0x00, 0x80, 0x39, 0x40, 0x2d, 0x90, 0x3c, 0x42, 0x09, 0x90, 0x34, 0x39,
0x81, 0x36, 0xb0, 0x40, 0x7f, 0x18, 0xb0, 0x40, 0x00, 0x10, 0x90, 0x37, 0x59, 0x02, 0x90, 0x3b,
0x5e, 0x01, 0x90, 0x43, 0x7d, 0x01, 0x90, 0x30, 0x50, 0x00, 0x90, 0x48, 0x6b, 0x00, 0x90, 0x3e,
0x63, 0x1c, 0x80, 0x37, 0x40, 0x00, 0x80, 0x3b, 0x40, 0x01, 0x80, 0x3e, 0x40, 0x01, 0x80, 0x30,
0x40, 0x02, 0x80, 0x43, 0x40, 0x02, 0x80, 0x48, 0x40, 0x14, 0xb0, 0x40, 0x7f, 0x05, 0xb0, 0x40,
0x00, 0x24, 0x90, 0x41, 0x7d, 0x00, 0x90, 0x39, 0x57, 0x00, 0x90, 0x30, 0x55, 0x01, 0x90, 0x3c,
0x63, 0x00, 0x90, 0x48, 0x7d, 0x31, 0xb0, 0x40, 0x7f, 0x49, 0x80, 0x3c, 0x40, 0x17, 0x90, 0x3c,
0x4c, 0x05, 0x80, 0x39, 0x40, 0x0d, 0x80, 0x34, 0x40, 0x1d, 0x90, 0x39, 0x59, 0x11, 0x80, 0x3c,
0x40, 0x22, 0x90, 0x3c, 0x50, 0x0c, 0x80, 0x48, 0x40, 0x01, 0x80, 0x41, 0x40, 0x13, 0x80, 0x3c,
0x40, 0x11, 0x90, 0x43, 0x7d, 0x01, 0x90, 0x48, 0x6b, 0x2f, 0x90, 0x3e, 0x63, 0x0a, 0x80, 0x39,
0x40, 0x0a, 0x80, 0x48, 0x40, 0x02, 0x80, 0x3e, 0x40, 0x01, 0x80, 0x30, 0x40, 0x01, 0x80, 0x43,
0x40, 0x16, 0x90, 0x48, 0x63, 0x01, 0x90, 0x3e, 0x63, 0x01, 0x90, 0x43, 0x7d, 0x01, 0x90, 0x37,
0x55, 0x1e, 0x80, 0x37, 0x40, 0x0d, 0x90, 0x37, 0x4d, 0x04, 0x90, 0x40, 0x7d, 0x00, 0x90, 0x30,
0x5e, 0x0a, 0x80, 0x3e, 0x40, 0x03, 0xb0, 0x40, 0x00, 0x4c, 0xb0, 0x40, 0x7f, 0x02, 0x90, 0x3c,
0x52, 0x08, 0x80, 0x37, 0x40, 0x28, 0x90, 0x37, 0x59, 0x09, 0x80, 0x3c, 0x40, 0x17, 0x80, 0x40,
0x40, 0x11, 0x90, 0x3c, 0x57, 0x02, 0x80, 0x43, 0x40, 0x00, 0x80, 0x48, 0x40, 0x01, 0x80, 0x30,
0x40, 0x01, 0x80, 0x37, 0x40, 0x0f, 0x80, 0x3c, 0x40, 0x1d, 0x90, 0x3b, 0x57, 0x01, 0x90, 0x30,
0x63, 0x00, 0x90, 0x43, 0x7d, 0x01, 0x90, 0x3c, 0x6b, 0x00, 0xb0, 0x40, 0x00, 0x02, 0x90, 0x48,
0x6b, 0x18, 0x80, 0x3c, 0x40, 0x08, 0x80, 0x3b, 0x40, 0x00, 0x80, 0x30, 0x40, 0x04, 0x80, 0x43,
0x40, 0x00, 0x80, 0x48, 0x40, 0x30, 0x90, 0x39, 0x52, 0x01, 0x90, 0x41, 0x7d, 0x00, 0x90, 0x48,
0x63, 0x01, 0x90, 0x3c, 0x6b, 0x00, 0x90, 0x30, 0x59, 0x32, 0xb0, 0x40, 0x7f, 0x3f, 0x80, 0x3c,
0x40, 0x06, 0x80, 0x48, 0x40, 0x06, 0x80, 0x39, 0x40, 0x01, 0x80, 0x41, 0x40, 0x4c, 0x90, 0x39,
0x52, 0x30, 0x90, 0x40, 0x7f, 0x1e, 0x80, 0x30, 0x40, 0x05, 0x80, 0x39, 0x40, 0x0a, 0x80, 0x40,
0x40, 0x06, 0x90, 0x3e, 0x6b, 0x1e, 0x80, 0x3e, 0x40, 0x11, 0x90, 0x3c, 0x6b, 0x1a, 0x80, 0x3c,
0x40, 0x15, 0x90, 0x3e, 0x7d, 0x2c, 0x90, 0x2e, 0x50, 0x01, 0xb0, 0x40, 0x00, 0x2e, 0xb0, 0x40,
0x7f, 0x51, 0x80, 0x3e, 0x40, 0x81, 0x28, 0x80, 0x2e, 0x40, 0x82, 0x19, 0xb0, 0x40, 0x00, 0x00,
0xff, 0x2f, 0x00, 0x4d, 0x54, 0x72, 0x6b, 0x00, 0x00, 0x02, 0x8a, 0x00, 0xff, 0x03, 0x0d, 0x41,
0x43, 0x4f, 0x55, 0x53, 0x54, 0x49, 0x43, 0x20, 0x42, 0x41, 0x53, 0x53, 0x00, 0xb1, 0x00, 0x00,
0x00, 0xc1, 0x20, 0x00, 0xb1, 0x0a, 0x56, 0x00, 0xb1, 0x5b, 0x00, 0x00, 0xb1, 0x5d, 0x00, 0x00,
0xff, 0x58, 0x04, 0x04, 0x02, 0x60, 0x08, 0x00, 0xff, 0x51, 0x03, 0x06, 0x10, 0x26, 0x00, 0xb1,
0x07, 0x64, 0x00, 0x91, 0x24, 0x60, 0x82, 0x2e, 0x81, 0x24, 0x40, 0x22, 0x91, 0x23, 0x59, 0x81,
0x40, 0x81, 0x23, 0x40, 0x00, 0x91, 0x28, 0x60, 0x81, 0x3f, 0x81, 0x28, 0x40, 0x01, 0x91, 0x2c,
0x61, 0x28, 0x81, 0x2c, 0x40, 0x08, 0x91, 0x2d, 0x50, 0x81, 0x53, 0x81, 0x2d, 0x40, 0x1d, 0x91,
0x2b, 0x60, 0x24, 0x81, 0x2b, 0x40, 0x3c, 0x91, 0x29, 0x70, 0x82, 0x50, 0x91, 0x28, 0x59, 0x02,
0x81, 0x29, 0x40, 0x2a, 0x81, 0x28, 0x40, 0x04, 0x91, 0x29, 0x59, 0x30, 0x91, 0x2b, 0x60, 0x03,
0x81, 0x29, 0x40, 0x82, 0x49, 0x81, 0x2b, 0x40, 0x04, 0x91, 0x28, 0x4e, 0x30, 0x91, 0x20, 0x61,
0x02, 0x81, 0x28, 0x40, 0x81, 0x6e, 0x91, 0x23, 0x59, 0x0f, 0x81, 0x20, 0x40, 0x47, 0x81, 0x23,
0x40, 0x0a, 0x91, 0x20, 0x52, 0x30, 0x91, 0x21, 0x60, 0x05, 0x81, 0x20, 0x40, 0x81, 0x4b, 0x81,
0x21, 0x40, 0x20, 0x91, 0x2b, 0x70, 0x1d, 0x81, 0x2b, 0x40, 0x43, 0x91, 0x29, 0x70, 0x82, 0x50,
0x91, 0x28, 0x54, 0x08, 0x81, 0x29, 0x40, 0x28, 0x91, 0x26, 0x54, 0x0c, 0x81, 0x28, 0x40, 0x23,
0x81, 0x26, 0x40, 0x01, 0x91, 0x1f, 0x59, 0x82, 0x2d, 0x81, 0x1f, 0x40, 0x23, 0x91, 0x1f, 0x59,
0x30, 0x91, 0x2b, 0x54, 0x08, 0x81, 0x1f, 0x40, 0x82, 0x16, 0x81, 0x2b, 0x40, 0x02, 0x91, 0x1f,
0x59, 0x30, 0x91, 0x21, 0x54, 0x06, 0x81, 0x1f, 0x40, 0x28, 0x81, 0x21, 0x40, 0x02, 0x91, 0x24,
0x4c, 0x81, 0x6e, 0x81, 0x24, 0x40, 0x02, 0x91, 0x21, 0x54, 0x2e, 0x81, 0x21, 0x40, 0x02, 0x91,
0x22, 0x58, 0x2d, 0x81, 0x22, 0x40, 0x03, 0x91, 0x23, 0x50, 0x81, 0x3d, 0x81, 0x23, 0x40, 0x03,
0x91, 0x28, 0x50, 0x81, 0x32, 0x81, 0x28, 0x40, 0x0e, 0x91, 0x20, 0x61, 0x2d, 0x81, 0x20, 0x40,
0x03, 0x91, 0x21, 0x48, 0x81, 0x56, 0x81, 0x21, 0x40, 0x1a, 0x91, 0x2b, 0x70, 0x20, 0x81, 0x2b,
0x40, 0x40, 0x91, 0x29, 0x60, 0x82, 0x4a, 0x81, 0x29, 0x40, 0x06, 0x91, 0x28, 0x59, 0x28, 0x81,
0x28, 0x40, 0x08, 0x91, 0x29, 0x59, 0x2c, 0x81, 0x29, 0x40, 0x04, 0x91, 0x2b, 0x54, 0x82, 0x2f,
0x81, 0x2b, 0x40, 0x21, 0x91, 0x2b, 0x59, 0x2c, 0x81, 0x2b, 0x40, 0x04, 0x91, 0x2c, 0x50, 0x81,
0x70, 0x91, 0x28, 0x59, 0x04, 0x81, 0x2c, 0x40, 0x18, 0x81, 0x28, 0x40, 0x44, 0x91, 0x23, 0x54,
0x2c, 0x81, 0x23, 0x40, 0x04, 0x91, 0x21, 0x4c, 0x81, 0x5c, 0x81, 0x21, 0x40, 0x14, 0x91, 0x2b,
0x54, 0x22, 0x81, 0x2b, 0x40, 0x3e, 0x91, 0x29, 0x60, 0x82, 0x4d, 0x81, 0x29, 0x40, 0x03, 0x91,
0x28, 0x59, 0x30, 0x91, 0x26, 0x59, 0x0c, 0x81, 0x28, 0x40, 0x16, 0x81, 0x26, 0x40, 0x0e, 0x91,
0x1f, 0x70, 0x82, 0x25, 0x81, 0x1f, 0x40, 0x2b, 0x91, 0x1f, 0x70, 0x30, 0x91, 0x2b, 0x59, 0x02,
0x81, 0x1f, 0x40, 0x81, 0x6e, 0x91, 0x1f, 0x60, 0x02, 0x81, 0x2b, 0x40, 0x81, 0x05, 0x81, 0x1f,
0x40, 0x09, 0x91, 0x24, 0x60, 0x81, 0x11, 0x91, 0x30, 0x59, 0x19, 0x81, 0x30, 0x40, 0x03, 0x81,
0x24, 0x40, 0x44, 0x91, 0x24, 0x60, 0x1c, 0x81, 0x24, 0x40, 0x43, 0x91, 0x24, 0x60, 0x82, 0x13,
0x81, 0x24, 0x40, 0x3a, 0x91, 0x1f, 0x70, 0x2b, 0x81, 0x1f, 0x40, 0x05, 0x91, 0x21, 0x4a, 0x2e,
0x81, 0x21, 0x40, 0x02, 0x91, 0x24, 0x4e, 0x81, 0x03, 0x81, 0x24, 0x40, 0x0e, 0x91, 0x30, 0x54,
0x18, 0x81, 0x30, 0x40, 0x48, 0x91, 0x24, 0x60, 0x1a, 0x81, 0x24, 0x40, 0x45, 0x91, 0x24, 0x4e,
0x6a, 0xe1, 0x40, 0x3f, 0x05, 0xe1, 0x00, 0x40, 0x2a, 0x91, 0x2b, 0x60, 0x04, 0x81, 0x24, 0x40,
0x0c, 0xe1, 0x40, 0x39, 0x05, 0xe1, 0x40, 0x30, 0x05, 0xe1, 0x40, 0x2c, 0x05, 0xe1, 0x40, 0x38,
0x05, 0xe1, 0x00, 0x40, 0x04, 0xe1, 0x40, 0x54, 0x06, 0xe1, 0x40, 0x69, 0x04, 0xe1, 0x00, 0x79,
0x05, 0xe1, 0x40, 0x7f, 0x05, 0xe1, 0x00, 0x7b, 0x05, 0xe1, 0x00, 0x6c, 0x05, 0xe1, 0x40, 0x55,
0x05, 0xe1, 0x00, 0x40, 0x6f, 0x91, 0x24, 0x59, 0x22, 0x81, 0x2b, 0x40, 0x0a, 0x81, 0x24, 0x40,
0x01, 0x91, 0x23, 0x4e, 0x33, 0x91, 0x22, 0x58, 0x04, 0x81, 0x23, 0x40, 0x82, 0x4d, 0x81, 0x22,
0x40, 0x00, 0xff, 0x2f, 0x00, 0x4d, 0x54, 0x72, 0x6b, 0x00, 0x00, 0x01, 0xda, 0x00, 0xff, 0x03,
0x03, 0x50, 0x41, 0x44, 0x00, 0xb3, 0x00, 0x00, 0x00, 0xc3, 0x31, 0x00, 0xb3, 0x0a, 0x50, 0x00,
0xb3, 0x5b, 0x4b, 0x00, 0xb3, 0x5d, 0x0f, 0x00, 0xff, 0x58, 0x04, 0x04, 0x02, 0x60, 0x08, 0x00,
0xff, 0x51, 0x03, 0x06, 0x10, 0x26, 0x00, 0xb3, 0x07, 0x37, 0x05, 0xb3, 0x07, 0x43, 0x81, 0x31,
0xb3, 0x07, 0x44, 0x29, 0xb3, 0x07, 0x43, 0x81, 0x2a, 0xb3, 0x07, 0x44, 0x61, 0xb3, 0x07, 0x43,
0xb6, 0x12, 0xb3, 0x07, 0x42, 0x09, 0xb3, 0x07, 0x41, 0x13, 0xb3, 0x07, 0x40, 0x11, 0xb3, 0x07,
0x3e, 0x15, 0xb3, 0x07, 0x3b, 0x11, 0xb3, 0x07, 0x39, 0x50, 0xb3, 0x07, 0x38, 0x08, 0xb3, 0x07,
0x37, 0x5d, 0xb3, 0x07, 0x37, 0x0d, 0xb3, 0x07, 0x3a, 0x0a, 0xb3, 0x07, 0x3d, 0x11, 0xb3, 0x07,
0x3e, 0x2a, 0xb3, 0x07, 0x3f, 0x0b, 0xb3, 0x07, 0x40, 0x19, 0xb3, 0x07, 0x42, 0x14, 0xb3, 0x07,
0x44, 0x16, 0xb3, 0x07, 0x48, 0x15, 0xb3, 0x07, 0x4a, 0x0f, 0xb3, 0x07, 0x4d, 0x0a, 0xb3, 0x07,
0x4d, 0x0c, 0xb3, 0x07, 0x4e, 0x0c, 0x93, 0x3e, 0x7f, 0x00, 0x93, 0x43, 0x7f, 0x03, 0xb3, 0x07,
0x4f, 0x00, 0x93, 0x3b, 0x7f, 0x0e, 0xb3, 0x07, 0x50, 0x0a, 0xb3, 0x07, 0x51, 0x07, 0x83, 0x3e,
0x40, 0x00, 0x83, 0x3b, 0x40, 0x07, 0x83, 0x43, 0x40, 0x02, 0xb3, 0x07, 0x51, 0x30, 0x93, 0x3c,
0x7f, 0x01, 0x93, 0x41, 0x7f, 0x02, 0x93, 0x39, 0x7f, 0x0c, 0xb3, 0x07, 0x51, 0x0e, 0xb3, 0x07,
0x50, 0x0d, 0xb3, 0x07, 0x4f, 0x19, 0xb3, 0x07, 0x4d, 0x0a, 0xb3, 0x07, 0x4c, 0x0e, 0xb3, 0x07,
0x4b, 0x11, 0xb3, 0x07, 0x4a, 0x44, 0xb3, 0x07, 0x49, 0x15, 0xb3, 0x07, 0x49, 0x13, 0xb3, 0x07,
0x48, 0x11, 0xb3, 0x07, 0x46, 0x19, 0xb3, 0x07, 0x45, 0x12, 0x83, 0x39, 0x40, 0x01, 0x83, 0x3c,
0x40, 0x28, 0x93, 0x37, 0x3a, 0x04, 0x93, 0x3b, 0x3a, 0x0e, 0x83, 0x41, 0x40, 0x18, 0xb3, 0x07,
0x44, 0x2e, 0x83, 0x3b, 0x40, 0x16, 0x93, 0x40, 0x7f, 0x02, 0xb3, 0x07, 0x45, 0x01, 0x93, 0x3c,
0x7f, 0x11, 0xb3, 0x07, 0x46, 0x09, 0xb3, 0x07, 0x48, 0x0e, 0xb3, 0x07, 0x49, 0x2d, 0xb3, 0x07,
0x48, 0x2c, 0xb3, 0x07, 0x46, 0x17, 0xb3, 0x07, 0x45, 0x38, 0xb3, 0x07, 0x46, 0x0d, 0x83, 0x3c,
0x40, 0x0c, 0x83, 0x37, 0x40, 0x03, 0x83, 0x40, 0x40, 0x01, 0xb3, 0x07, 0x48, 0x09, 0x93, 0x3e,
0x7f, 0x01, 0x93, 0x43, 0x7f, 0x04, 0x93, 0x3b, 0x7f, 0x0b, 0xb3, 0x07, 0x49, 0x11, 0x83, 0x3e,
0x40, 0x00, 0x83, 0x3b, 0x40, 0x06, 0x83, 0x43, 0x40, 0x31, 0x93, 0x3c, 0x7f, 0x01, 0x93, 0x41,
0x7f, 0x03, 0x93, 0x39, 0x7f, 0x81, 0x0a, 0xb3, 0x07, 0x49, 0x4a, 0x83, 0x41, 0x40, 0x1a, 0xb3,
0x07, 0x4a, 0x04, 0x93, 0x40, 0x7f, 0x0a, 0x83, 0x39, 0x40, 0x04, 0x83, 0x3c, 0x40, 0x23, 0x93,
0x3e, 0x7f, 0x0f, 0x83, 0x40, 0x40, 0x1e, 0x93, 0x3c, 0x7f, 0x08, 0x83, 0x3e, 0x40, 0x1f, 0xb3,
0x07, 0x4b, 0x1c, 0xb3, 0x07, 0x4a, 0x1a, 0x93, 0x3e, 0x7f, 0x02, 0x93, 0x3a, 0x6c, 0x03, 0xb3,
0x07, 0x49, 0x01, 0x93, 0x35, 0x66, 0x02, 0x83, 0x3c, 0x40, 0x1d, 0xb3, 0x07, 0x49, 0x41, 0xb3,
0x07, 0x48, 0x63, 0xb3, 0x07, 0x46, 0x81, 0x23, 0x83, 0x35, 0x40, 0x27, 0x83, 0x3e, 0x40, 0x02,
0x83, 0x3a, 0x40, 0x00, 0xff, 0x2f, 0x00, 0x4d, 0x54, 0x72, 0x6b, 0x00, 0x00, 0x00, 0x41, 0x00,
0xff, 0x03, 0x0b, 0x46, 0x52, 0x45, 0x4e, 0x43, 0x48, 0x20, 0x48, 0x4f, 0x52, 0x4e, 0x00, 0xb2,
0x00, 0x00, 0x00, 0xc2, 0x3c, 0x00, 0xb2, 0x0a, 0x17, 0x00, 0xb2, 0x5b, 0x7a, 0x00, 0xb2, 0x5d,
0x00, 0x00, 0xff, 0x58, 0x04, 0x04, 0x02, 0x60, 0x08, 0x00, 0xff, 0x51, 0x03, 0x06, 0x10, 0x26,
0x00, 0xb2, 0x07, 0x55, 0x00, 0xb2, 0x63, 0x01, 0x00, 0xb2, 0x62, 0x63, 0x00, 0xff, 0x2f, 0x00,
0x4d, 0x54, 0x72, 0x6b, 0x00, 0x00, 0x01, 0x9f, 0x00, 0xff, 0x03, 0x04, 0x4b, 0x49, 0x43, 0x4b,
0x00, 0xb9, 0x00, 0x00, 0x00, 0xb9, 0x0a, 0x4a, 0x00, 0xff, 0x58, 0x04, 0x04, 0x02, 0x60, 0x08,
0x00, 0xff, 0x51, 0x03, 0x06, 0x10, 0x26, 0x00, 0x99, 0x24, 0x56, 0x02, 0x89, 0x24, 0x40, 0x82,
0x4e, 0x99, 0x24, 0x56, 0x02, 0x89, 0x24, 0x40, 0x81, 0x3e, 0x99, 0x24, 0x65, 0x02, 0x89, 0x24,
0x40, 0x81, 0x3e, 0x99, 0x24, 0x56, 0x02, 0x89, 0x24, 0x40, 0x82, 0x1e, 0x99, 0x24, 0x56, 0x02,
0x89, 0x24, 0x40, 0x5e, 0x99, 0x24, 0x56, 0x02, 0x89, 0x24, 0x40, 0x81, 0x3e, 0x99, 0x24, 0x50,
0x02, 0x89, 0x24, 0x40, 0x81, 0x6e, 0x99, 0x24, 0x65, 0x02, 0x89, 0x24, 0x40, 0x82, 0x7e, 0x99,
0x24, 0x56, 0x02, 0x89, 0x24, 0x40, 0x82, 0x7e, 0x99, 0x24, 0x56, 0x02, 0x89, 0x24, 0x40, 0x81,
0x0e, 0x99, 0x24, 0x56, 0x02, 0x89, 0x24, 0x40, 0x5e, 0x99, 0x24, 0x50, 0x02, 0x89, 0x24, 0x40,
0x5e, 0x99, 0x24, 0x50, 0x02, 0x89, 0x24, 0x40, 0x82, 0x7e, 0x99, 0x24, 0x4c, 0x02, 0x89, 0x24,
0x40, 0x2e, 0x99, 0x24, 0x48, 0x02, 0x89, 0x24, 0x40, 0x82, 0x4e, 0x99, 0x24, 0x56, 0x02, 0x89,
0x24, 0x40, 0x2e, 0x99, 0x24, 0x48, 0x02, 0x89, 0x24, 0x40, 0x82, 0x4e, 0x99, 0x24, 0x43, 0x02,
0x89, 0x24, 0x40, 0x82, 0x7d, 0x99, 0x24, 0x56, 0x02, 0x89, 0x24, 0x40, 0x81, 0x3e, 0x99, 0x24,
0x65, 0x02, 0x89, 0x24, 0x40, 0x81, 0x3e, 0x99, 0x24, 0x56, 0x02, 0x89, 0x24, 0x40, 0x82, 0x1e,
0x99, 0x24, 0x56, 0x02, 0x89, 0x24, 0x40, 0x5e, 0x99, 0x24, 0x56, 0x02, 0x89, 0x24, 0x40, 0x81,
0x3e, 0x99, 0x24, 0x50, 0x02, 0x89, 0x24, 0x40, 0x81, 0x6e, 0x99, 0x24, 0x65, 0x02, 0x89, 0x24,
0x40, 0x82, 0x7e, 0x99, 0x24, 0x56, 0x02, 0x89, 0x24, 0x40, 0x82, 0x7e, 0x99, 0x24, 0x56, 0x02,
0x89, 0x24, 0x40, 0x81, 0x0e, 0x99, 0x24, 0x56, 0x02, 0x89, 0x24, 0x40, 0x5e, 0x99, 0x24, 0x50,
0x02, 0x89, 0x24, 0x40, 0x5e, 0x99, 0x24, 0x50, 0x02, 0x89, 0x24, 0x40, 0x82, 0x7e, 0x99, 0x24,
0x4c, 0x02, 0x89, 0x24, 0x40, 0x2e, 0x99, 0x24, 0x48, 0x02, 0x89, 0x24, 0x40, 0x82, 0x4e, 0x99,
0x24, 0x56, 0x02, 0x89, 0x24, 0x40, 0x2e, 0x99, 0x24, 0x48, 0x02, 0x89, 0x24, 0x40, 0x82, 0x4e,
0x99, 0x24, 0x43, 0x02, 0x89, 0x24, 0x40, 0x2f, 0x99, 0x24, 0x50, 0x02, 0x89, 0x24, 0x40, 0x81,
0x6e, 0x99, 0x24, 0x56, 0x02, 0x89, 0x24, 0x40, 0x5e, 0x99, 0x24, 0x73, 0x02, 0x89, 0x24, 0x40,
0x81, 0x3e, 0x99, 0x24, 0x65, 0x02, 0x89, 0x24, 0x40, 0x81, 0x0e, 0x99, 0x24, 0x50, 0x02, 0x89,
0x24, 0x40, 0x5e, 0x99, 0x24, 0x73, 0x02, 0x89, 0x24, 0x40, 0x81, 0x0e, 0x99, 0x24, 0x65, 0x02,
0x89, 0x24, 0x40, 0x5e, 0x99, 0x24, 0x50, 0x02, 0x89, 0x24, 0x40, 0x5e, 0x99, 0x24, 0x65, 0x02,
0x89, 0x24, 0x40, 0x00, 0xff, 0x2f, 0x00, 0x4d, 0x54, 0x72, 0x6b, 0x00, 0x00, 0x01, 0x05, 0x00,
0xff, 0x03, 0x0e, 0x53, 0x4e, 0x41, 0x52, 0x45, 0x2f, 0x52, 0x49, 0x4d, 0x20, 0x53, 0x48, 0x4f,
0x54, 0x00, 0xb9, 0x00, 0x00, 0x00, 0xb9, 0x0a, 0x33, 0x00, 0xff, 0x58, 0x04, 0x04, 0x02, 0x60,
0x08, 0x00, 0xff, 0x51, 0x03, 0x06, 0x10, 0x26, 0x81, 0x43, 0x99, 0x28, 0x66, 0x03, 0x89, 0x28,
0x40, 0x82, 0x7d, 0x99, 0x28, 0x66, 0x03, 0x89, 0x28, 0x40, 0x82, 0x7d, 0x99, 0x28, 0x66, 0x03,
0x89, 0x28, 0x40, 0x82, 0x7d, 0x99, 0x28, 0x5a, 0x03, 0x89, 0x28, 0x40, 0x82, 0x7d, 0x99, 0x28,
0x5a, 0x03, 0x89, 0x28, 0x40, 0x82, 0x7d, 0x99, 0x28, 0x66, 0x03, 0x89, 0x28, 0x40, 0x82, 0x7d,
0x99, 0x28, 0x5a, 0x03, 0x89, 0x28, 0x40, 0x82, 0x7d, 0x99, 0x28, 0x66, 0x03, 0x89, 0x28, 0x40,
0x82, 0x7d, 0x99, 0x28, 0x66, 0x03, 0x89, 0x28, 0x40, 0x82, 0x7d, 0x99, 0x28, 0x66, 0x03, 0x89,
0x28, 0x40, 0x82, 0x7d, 0x99, 0x28, 0x66, 0x02, 0x89, 0x28, 0x40, 0x82, 0x7e, 0x99, 0x28, 0x66,
0x02, 0x89, 0x28, 0x40, 0x82, 0x7e, 0x99, 0x28, 0x66, 0x02, 0x89, 0x28, 0x40, 0x82, 0x7e, 0x99,
0x28, 0x5a, 0x02, 0x89, 0x28, 0x40, 0x82, 0x7e, 0x99, 0x28, 0x5a, 0x02, 0x89, 0x28, 0x40, 0x82,
0x7e, 0x99, 0x28, 0x66, 0x02, 0x89, 0x28, 0x40, 0x82, 0x7e, 0x99, 0x28, 0x5a, 0x02, 0x89, 0x28,
0x40, 0x82, 0x7e, 0x99, 0x28, 0x66, 0x02, 0x89, 0x28, 0x40, 0x82, 0x7e, 0x99, 0x28, 0x66, 0x02,
0x89, 0x28, 0x40, 0x82, 0x7e, 0x99, 0x28, 0x66, 0x02, 0x89, 0x28, 0x40, 0x82, 0x7e, 0x99, 0x28,
0x66, 0x02, 0x89, 0x28, 0x40, 0x82, 0x7d, 0x99, 0x28, 0x66, 0x02, 0x89, 0x28, 0x40, 0x82, 0x7f,
0x99, 0x28, 0x66, 0x02, 0x89, 0x28, 0x40, 0x82, 0x7e, 0x99, 0x28, 0x66, 0x02, 0x89, 0x28, 0x40,
0x00, 0xff, 0x2f, 0x00, 0x4d, 0x54, 0x72, 0x6b, 0x00, 0x00, 0x01, 0x26, 0x00, 0xff, 0x03, 0x06,
0x53, 0x48, 0x41, 0x4b, 0x45, 0x52, 0x00, 0xb9, 0x00, 0x00, 0x00, 0xb9, 0x0a, 0x4b, 0x00, 0xff,
0x58, 0x04, 0x04, 0x02, 0x60, 0x08, 0x00, 0xff, 0x51, 0x03, 0x06, 0x10, 0x26, 0x60, 0x99, 0x45,
0x48, 0x02, 0x89, 0x45, 0x40, 0x2e, 0x99, 0x45, 0x44, 0x02, 0x89, 0x45, 0x40, 0x82, 0x4e, 0x99,
0x45, 0x4d, 0x02, 0x89, 0x45, 0x40, 0x82, 0x7c, 0x99, 0x45, 0x4d, 0x02, 0x89, 0x45, 0x40, 0x2e,
0x99, 0x45, 0x42, 0x02, 0x89, 0x45, 0x40, 0x85, 0x4f, 0x99, 0x45, 0x4c, 0x02, 0x89, 0x45, 0x40,
0x2d, 0x99, 0x45, 0x44, 0x03, 0x89, 0x45, 0x40, 0x82, 0x4c, 0x99, 0x45, 0x4f, 0x03, 0x89, 0x45,
0x40, 0x82, 0x7d, 0x99, 0x45, 0x4f, 0x03, 0x89, 0x45, 0x40, 0x2e, 0x99, 0x45, 0x42, 0x02, 0x89,
0x45, 0x40, 0x85, 0x4f, 0x99, 0x45, 0x4d, 0x02, 0x89, 0x45, 0x40, 0x2d, 0x99, 0x45, 0x46, 0x03,
0x89, 0x45, 0x40, 0x82, 0x4e, 0x99, 0x45, 0x53, 0x02, 0x89, 0x45, 0x40, 0x82, 0x7e, 0x99, 0x45,
0x48, 0x03, 0x89, 0x45, 0x40, 0x2e, 0x99, 0x45, 0x44, 0x02, 0x89, 0x45, 0x40, 0x82, 0x4e, 0x99,
0x45, 0x4d, 0x02, 0x89, 0x45, 0x40, 0x82, 0x7c, 0x99, 0x45, 0x4d, 0x02, 0x89, 0x45, 0x40, 0x2e,
0x99, 0x45, 0x42, 0x02, 0x89, 0x45, 0x40, 0x85, 0x4e, 0x99, 0x45, 0x4c, 0x03, 0x89, 0x45, 0x40,
0x2d, 0x99, 0x45, 0x44, 0x02, 0x89, 0x45, 0x40, 0x82, 0x4d, 0x99, 0x45, 0x4f, 0x03, 0x89, 0x45,
0x40, 0x82, 0x7d, 0x99, 0x45, 0x4f, 0x03, 0x89, 0x45, 0x40, 0x2d, 0x99, 0x45, 0x42, 0x03, 0x89,
0x45, 0x40, 0x85, 0x4f, 0x99, 0x45, 0x4d, 0x02, 0x89, 0x45, 0x40, 0x2d, 0x99, 0x45, 0x46, 0x03,
0x89, 0x45, 0x40, 0x82, 0x4d, 0x99, 0x45, 0x53, 0x03, 0x89, 0x45, 0x40, 0x82, 0x7e, 0x99, 0x45,
0x3f, 0x03, 0x89, 0x45, 0x40, 0x2e, 0x99, 0x45, 0x44, 0x02, 0x89, 0x45, 0x40, 0x85, 0x4d, 0x99,
0x45, 0x3c, 0x03, 0x89, 0x45, 0x40, 0x2d, 0x99, 0x45, 0x44, 0x03, 0x89, 0x45, 0x40, 0x00, 0xff,
0x2f, 0x00, 0x4d, 0x54, 0x72, 0x6b, 0x00, 0x00, 0x04, 0x14, 0x00, 0xff, 0x03, 0x08, 0x54, 0x52,
0x49, 0x41, 0x4e, 0x47, 0x4c, 0x45, 0x00, 0xb9, 0x00, 0x00, 0x00, 0xb9, 0x0a, 0x4e, 0x00, 0xff,
0x58, 0x04, 0x04, 0x02, 0x60, 0x08, 0x00, 0xff, 0x51, 0x03, 0x06, 0x10, 0x26, 0x00, 0x99, 0x51,
0x35, 0x03, 0x89, 0x51, 0x40, 0x5f, 0x99, 0x50, 0x17, 0x02, 0x89, 0x50, 0x40, 0x2e, 0x99, 0x50,
0x1d, 0x02, 0x89, 0x50, 0x40, 0x81, 0x0c, 0x99, 0x50, 0x24, 0x02, 0x89, 0x50, 0x40, 0x2e, 0x99,
0x50, 0x21, 0x03, 0x89, 0x50, 0x40, 0x2d, 0x99, 0x51, 0x2c, 0x02, 0x89, 0x51, 0x40, 0x5e, 0x99,
0x50, 0x1f, 0x03, 0x89, 0x50, 0x40, 0x2d, 0x99, 0x50, 0x26, 0x02, 0x89, 0x50, 0x40, 0x81, 0x0e,
0x99, 0x50, 0x24, 0x02, 0x89, 0x50, 0x40, 0x2e, 0x99, 0x50, 0x21, 0x03, 0x89, 0x50, 0x40, 0x2d,
0x99, 0x51, 0x2e, 0x02, 0x89, 0x51, 0x40, 0x5f, 0x99, 0x50, 0x1e, 0x02, 0x89, 0x50, 0x40, 0x2d,
0x99, 0x50, 0x24, 0x03, 0x89, 0x50, 0x40, 0x81, 0x0d, 0x99, 0x50, 0x25, 0x02, 0x89, 0x50, 0x40,
0x2e, 0x99, 0x50, 0x22, 0x03, 0x89, 0x50, 0x40, 0x2d, 0x99, 0x50, 0x23, 0x03, 0x89, 0x50, 0x40,
0x2d, 0x99, 0x51, 0x35, 0x03, 0x89, 0x51, 0x40, 0x2f, 0x99, 0x50, 0x18, 0x02, 0x89, 0x50, 0x40,
0x2c, 0x99, 0x50, 0x30, 0x03, 0x89, 0x50, 0x40, 0x2e, 0x99, 0x50, 0x20, 0x03, 0x89, 0x50, 0x40,
0x2c, 0x99, 0x51, 0x2e, 0x02, 0x89, 0x51, 0x40, 0x2e, 0x99, 0x50, 0x1f, 0x02, 0x89, 0x50, 0x40,
0x2e, 0x99, 0x50, 0x32, 0x02, 0x89, 0x50, 0x40, 0x2e, 0x99, 0x51, 0x28, 0x03, 0x89, 0x51, 0x40,
0x5e, 0x99, 0x50, 0x17, 0x02, 0x89, 0x50, 0x40, 0x2e, 0x99, 0x50, 0x17, 0x03, 0x89, 0x50, 0x40,
0x81, 0x0c, 0x99, 0x50, 0x21, 0x02, 0x89, 0x50, 0x40, 0x2e, 0x99, 0x50, 0x34, 0x02, 0x89, 0x50,
0x40, 0x2f, 0x99, 0x51, 0x24, 0x02, 0x89, 0x51, 0x40, 0x81, 0x0d, 0x99, 0x50, 0x31, 0x02, 0x89,
0x50, 0x40, 0x81, 0x0e, 0x99, 0x50, 0x1e, 0x02, 0x89, 0x50, 0x40, 0x2e, 0x99, 0x50, 0x2a, 0x02,
0x89, 0x50, 0x40, 0x2e, 0x99, 0x51, 0x3f, 0x02, 0x89, 0x51, 0x40, 0x5e, 0x99, 0x50, 0x23, 0x02,
0x89, 0x50, 0x40, 0x2e, 0x99, 0x50, 0x1c, 0x02, 0x89, 0x50, 0x40, 0x81, 0x0e, 0x99, 0x50, 0x27,
0x02, 0x89, 0x50, 0x40, 0x2e, 0x99, 0x50, 0x2a, 0x02, 0x89, 0x50, 0x40, 0x81, 0x10, 0x99, 0x50,
0x17, 0x03, 0x89, 0x50, 0x40, 0x2d, 0x99, 0x50, 0x17, 0x02, 0x89, 0x50, 0x40, 0x81, 0x0b, 0x99,
0x50, 0x29, 0x02, 0x89, 0x50, 0x40, 0x2e, 0x99, 0x50, 0x27, 0x02, 0x89, 0x50, 0x40, 0x2f, 0x99,
0x51, 0x2c, 0x02, 0x89, 0x51, 0x40, 0x5e, 0x99, 0x50, 0x22, 0x03, 0x89, 0x50, 0x40, 0x2d, 0x99,
0x50, 0x24, 0x03, 0x89, 0x50, 0x40, 0x81, 0x0d, 0x99, 0x50, 0x25, 0x02, 0x89, 0x50, 0x40, 0x2e,
0x99, 0x50, 0x2a, 0x03, 0x89, 0x50, 0x40, 0x2e, 0x99, 0x51, 0x24, 0x02, 0x89, 0x51, 0x40, 0x5d,
0x99, 0x50, 0x2b, 0x02, 0x89, 0x50, 0x40, 0x2e, 0x99, 0x50, 0x24, 0x02, 0x89, 0x50, 0x40, 0x81,
0x0e, 0x99, 0x50, 0x1c, 0x02, 0x89, 0x50, 0x40, 0x2e, 0x99, 0x50, 0x24, 0x03, 0x89, 0x50, 0x40,
0x2d, 0x99, 0x51, 0x30, 0x02, 0x89, 0x51, 0x40, 0x5e, 0x99, 0x50, 0x28, 0x02, 0x89, 0x50, 0x40,
0x2e, 0x99, 0x50, 0x24, 0x02, 0x89, 0x50, 0x40, 0x5f, 0x99, 0x50, 0x29, 0x02, 0x89, 0x50, 0x40,
0x5d, 0x99, 0x50, 0x2c, 0x02, 0x89, 0x50, 0x40, 0x2e, 0x99, 0x51, 0x26, 0x02, 0x89, 0x51, 0x40,
0x5e, 0x99, 0x50, 0x27, 0x02, 0x89, 0x50, 0x40, 0x2e, 0x99, 0x50, 0x21, 0x02, 0x89, 0x50, 0x40,
0x81, 0x0d, 0x99, 0x50, 0x26, 0x03, 0x89, 0x50, 0x40, 0x2e, 0x99, 0x50, 0x22, 0x02, 0x89, 0x50,
0x40, 0x2e, 0x99, 0x51, 0x24, 0x02, 0x89, 0x51, 0x40, 0x5d, 0x99, 0x50, 0x22, 0x03, 0x89, 0x50,
0x40, 0x2d, 0x99, 0x50, 0x24, 0x03, 0x89, 0x50, 0x40, 0x5d, 0x99, 0x51, 0x2c, 0x03, 0x89, 0x51,
0x40, 0x2e, 0x99, 0x50, 0x20, 0x02, 0x89, 0x50, 0x40, 0x2e, 0x99, 0x51, 0x39, 0x02, 0x89, 0x51,
0x40, 0x81, 0x0e, 0x99, 0x50, 0x2a, 0x02, 0x89, 0x50, 0x40, 0x2e, 0x99, 0x50, 0x28, 0x02, 0x89,
0x50, 0x40, 0x2e, 0x99, 0x51, 0x39, 0x03, 0x89, 0x51, 0x40, 0x5d, 0x99, 0x50, 0x21, 0x02, 0x89,
0x50, 0x40, 0x2e, 0x99, 0x50, 0x21, 0x03, 0x89, 0x50, 0x40, 0x2d, 0x99, 0x51, 0x31, 0x03, 0x89,
0x51, 0x40, 0x5e, 0x99, 0x50, 0x17, 0x02, 0x89, 0x50, 0x40, 0x2d, 0x99, 0x50, 0x28, 0x02, 0x89,
0x50, 0x40, 0x81, 0x0e, 0x99, 0x50, 0x2c, 0x03, 0x89, 0x50, 0x40, 0x2d, 0x99, 0x50, 0x2a, 0x03,
0x89, 0x50, 0x40, 0x2d, 0x99, 0x51, 0x36, 0x03, 0x89, 0x51, 0x40, 0x5c, 0x99, 0x50, 0x23, 0x03,
0x89, 0x50, 0x40, 0x2e, 0x99, 0x50, 0x24, 0x02, 0x89, 0x50, 0x40, 0x5e, 0x99, 0x51, 0x41, 0x02,
0x89, 0x51, 0x40, 0x2d, 0x99, 0x50, 0x2b, 0x02, 0x89, 0x50, 0x40, 0x2f, 0x99, 0x51, 0x2b, 0x02,
0x89, 0x51, 0x40, 0x81, 0x0d, 0x99, 0x50, 0x29, 0x03, 0x89, 0x50, 0x40, 0x2e, 0x99, 0x50, 0x29,
0x02, 0x89, 0x50, 0x40, 0x81, 0x0d, 0x99, 0x50, 0x2c, 0x03, 0x89, 0x50, 0x40, 0x2e, 0x99, 0x50,
0x28, 0x02, 0x89, 0x50, 0x40, 0x2f, 0x99, 0x51, 0x26, 0x02, 0x89, 0x51, 0x40, 0x5e, 0x99, 0x50,
0x17, 0x02, 0x89, 0x50, 0x40, 0x2e, 0x99, 0x50, 0x1f, 0x03, 0x89, 0x50, 0x40, 0x5c, 0x99, 0x50,
0x23, 0x02, 0x89, 0x50, 0x40, 0x2d, 0x99, 0x51, 0x3b, 0x03, 0x89, 0x51, 0x40, 0x2e, 0x99, 0x50,
0x23, 0x02, 0x89, 0x50, 0x40, 0x2e, 0x99, 0x51, 0x2e, 0x03, 0x89, 0x51, 0x40, 0x5d, 0x99, 0x50,
0x23, 0x02, 0x89, 0x50, 0x40, 0x2e, 0x99, 0x50, 0x24, 0x02, 0x89, 0x50, 0x40, 0x5e, 0x99, 0x51,
0x2e, 0x02, 0x89, 0x51, 0x40, 0x2f, 0x99, 0x50, 0x17, 0x03, 0x89, 0x50, 0x40, 0x2c, 0x99, 0x51,
0x39, 0x03, 0x89, 0x51, 0x40, 0x81, 0x0d, 0x99, 0x50, 0x28, 0x02, 0x89, 0x50, 0x40, 0x2e, 0x99,
0x50, 0x28, 0x02, 0x89, 0x50, 0x40, 0x81, 0x0e, 0x99, 0x50, 0x28, 0x02, 0x89, 0x50, 0x40, 0x2e,
0x99, 0x50, 0x30, 0x03, 0x89, 0x50, 0x40, 0x2d, 0x99, 0x51, 0x35, 0x02, 0x89, 0x51, 0x40, 0x5e,
0x99, 0x50, 0x24, 0x02, 0x89, 0x50, 0x40, 0x2e, 0x99, 0x50, 0x26, 0x02, 0x89, 0x50, 0x40, 0x5e,
0x99, 0x51, 0x25, 0x02, 0x89, 0x51, 0x40, 0x2e, 0x99, 0x50, 0x21, 0x02, 0x89, 0x50, 0x40, 0x2e,
0x99, 0x51, 0x2e, 0x02, 0x89, 0x51, 0x40, 0x2e, 0x99, 0x50, 0x17, 0x03, 0x89, 0x50, 0x40, 0x5d,
0x99, 0x50, 0x29, 0x02, 0x89, 0x50, 0x40, 0x81, 0x3e, 0x99, 0x50, 0x2c, 0x02, 0x89, 0x50, 0x40,
0x2d, 0x99, 0x50, 0x34, 0x03, 0x89, 0x50, 0x40, 0x2e, 0x99, 0x51, 0x3f, 0x02, 0x89, 0x51, 0x40,
0x5e, 0x99, 0x50, 0x21, 0x03, 0x89, 0x50, 0x40, 0x2d, 0x99, 0x50, 0x2a, 0x02, 0x89, 0x50, 0x40,
0x5d, 0x99, 0x51, 0x3b, 0x03, 0x89, 0x51, 0x40, 0x2e, 0x99, 0x50, 0x22, 0x02, 0x89, 0x50, 0x40,
0x2e, 0x99, 0x51, 0x36, 0x02, 0x89, 0x51, 0x40, 0x81, 0x0c, 0x99, 0x50, 0x24, 0x03, 0x89, 0x50,
0x40, 0x2e, 0x99, 0x50, 0x27, 0x02, 0x89, 0x50, 0x40, 0x81, 0x0f, 0x99, 0x50, 0x1f, 0x02, 0x89,
0x50, 0x40, 0x2e, 0x99, 0x50, 0x21, 0x02, 0x89, 0x50, 0x40, 0x00, 0xff, 0x2f, 0x00, 0x4d, 0x54,
0x72, 0x6b, 0x00, 0x00, 0x00, 0xaf, 0x00, 0xff, 0x03, 0x0d, 0x43, 0x52, 0x41, 0x53, 0x48, 0x20,
0x43, 0x59, 0x4d, 0x42, 0x41, 0x4c, 0x53, 0x00, 0xb9, 0x00, 0x00, 0x00, 0xff, 0x58, 0x04, 0x04,
0x02, 0x60, 0x08, 0x00, 0xff, 0x51, 0x03, 0x06, 0x10, 0x26, 0x05, 0x99, 0x34, 0x47, 0x03, 0x89,
0x34, 0x40, 0x9d, 0x76, 0x99, 0x39, 0x34, 0x02, 0x89, 0x39, 0x40, 0x9e, 0x00, 0x99, 0x39, 0x3c,
0x00, 0x99, 0x34, 0x3a, 0x02, 0x89, 0x39, 0x40, 0x00, 0x89, 0x34, 0x40, 0x81, 0x6e, 0x99, 0x39,
0x40, 0x03, 0x89, 0x39, 0x40, 0x5c, 0x99, 0x34, 0x3e, 0x02, 0x89, 0x34, 0x40, 0x82, 0x1f, 0x99,
0x34, 0x3f, 0x03, 0x89, 0x34, 0x40, 0x2d, 0x99, 0x39, 0x14, 0x03, 0x89, 0x39, 0x40, 0x2d, 0x99,
0x34, 0x3e, 0x02, 0x89, 0x34, 0x40, 0x2e, 0x99, 0x39, 0x40, 0x02, 0x89, 0x39, 0x40, 0x81, 0x6d,
0x99, 0x37, 0x43, 0x03, 0x89, 0x37, 0x40, 0x2c, 0x99, 0x39, 0x34, 0x03, 0x89, 0x39, 0x40, 0x2e,
0x99, 0x34, 0x43, 0x03, 0x89, 0x34, 0x40, 0x81, 0x3e, 0x99, 0x34, 0x3d, 0x02, 0x89, 0x34, 0x40,
0x2e, 0x99, 0x39, 0x34, 0x02, 0x89, 0x39, 0x40, 0x81, 0x3f, 0x99, 0x34, 0x3e, 0x03, 0x89, 0x34,
0x40, 0x00, 0xff, 0x2f, 0x00, 0x4d, 0x54, 0x72, 0x6b, 0x00, 0x00, 0x00, 0x71, 0x00, 0xff, 0x03,
0x04, 0x54, 0x4f, 0x4d, 0x53, 0x00, 0xb9, 0x00, 0x00, 0x00, 0xff, 0x58, 0x04, 0x04, 0x02, 0x60,
0x08, 0x00, 0xff, 0x51, 0x03, 0x06, 0x10, 0x26, 0xbf, 0x2f, 0x99, 0x32, 0x5f, 0x03, 0x89, 0x32,
0x40, 0x5e, 0x99, 0x30, 0x5c, 0x02, 0x89, 0x30, 0x40, 0x2e, 0x99, 0x30, 0x5c, 0x02, 0x89, 0x30,
0x40, 0x5e, 0x99, 0x2d, 0x5c, 0x03, 0x89, 0x2d, 0x40, 0x2d, 0x99, 0x2d, 0x5a, 0x02, 0x89, 0x2d,
0x40, 0x83, 0x5e, 0x99, 0x30, 0x5f, 0x02, 0x89, 0x30, 0x40, 0x2e, 0x99, 0x2f, 0x5f, 0x02, 0x89,
0x2f, 0x40, 0x2d, 0x99, 0x2d, 0x5a, 0x03, 0x89, 0x2d, 0x40, 0x5e, 0x99, 0x2b, 0x5c, 0x03, 0x89,
0x2b, 0x40, 0x2d, 0x99, 0x29, 0x5a, 0x03, 0x89, 0x29, 0x40, 0x00, 0xff, 0x2f, 0x00, 0x4d, 0x54,
0x72, 0x6b, 0x00, 0x00, 0x04, 0x0c, 0x00, 0xff, 0x03, 0x0c, 0x52, 0x49, 0x44, 0x45, 0x20, 0x43,
0x59, 0x4d, 0x42, 0x41, 0x4c, 0x53, 0x00, 0xb9, 0x00, 0x00, 0x00, 0xff, 0x58, 0x04, 0x04, 0x02,
0x60, 0x08, 0x00, 0xff, 0x51, 0x03, 0x06, 0x10, 0x26, 0x01, 0x99, 0x3b, 0x6a, 0x02, 0x89, 0x3b,
0x40, 0x81, 0x0d, 0x99, 0x3b, 0x57, 0x03, 0x89, 0x3b, 0x40, 0x81, 0x0d, 0x99, 0x3b, 0x57, 0x03,
0x89, 0x3b, 0x40, 0x2d, 0x99, 0x33, 0x42, 0x02, 0x89, 0x33, 0x40, 0x2e, 0x99, 0x33, 0x5c, 0x02,
0x89, 0x33, 0x40, 0x5e, 0x99, 0x33, 0x39, 0x02, 0x89, 0x33, 0x40, 0x2e, 0x99, 0x33, 0x47, 0x02,
0x89, 0x33, 0x40, 0x5f, 0x99, 0x3b, 0x42, 0x02, 0x89, 0x3b, 0x40, 0x2d, 0x99, 0x3b, 0x3b, 0x03,
0x89, 0x3b, 0x40, 0x2d, 0x99, 0x33, 0x4b, 0x02, 0x89, 0x33, 0x40, 0x81, 0x0e, 0x99, 0x3b, 0x2d,
0x03, 0x89, 0x3b, 0x40, 0x5d, 0x99, 0x3b, 0x52, 0x02, 0x89, 0x3b, 0x40, 0x2e, 0x99, 0x3b, 0x52,
0x02, 0x89, 0x3b, 0x40, 0x2e, 0x99, 0x33, 0x40, 0x03, 0x89, 0x33, 0x40, 0x2d, 0x99, 0x33, 0x47,
0x03, 0x89, 0x33, 0x40, 0x5d, 0x99, 0x3b, 0x52, 0x03, 0x89, 0x3b, 0x40, 0x5d, 0x99, 0x3b, 0x39,
0x02, 0x89, 0x3b, 0x40, 0x2e, 0x99, 0x33, 0x5c, 0x02, 0x89, 0x33, 0x40, 0x5e, 0x99, 0x3b, 0x60,
0x02, 0x89, 0x3b, 0x40, 0x2d, 0x99, 0x33, 0x4e, 0x03, 0x89, 0x33, 0x40, 0x2e, 0x99, 0x3b, 0x57,
0x02, 0x89, 0x3b, 0x40, 0x81, 0x3d, 0x99, 0x3b, 0x5b, 0x03, 0x89, 0x3b, 0x40, 0x2d, 0x99, 0x3b,
0x57, 0x03, 0x89, 0x3b, 0x40, 0x2d, 0x99, 0x3b, 0x50, 0x02, 0x89, 0x3b, 0x40, 0x2f, 0x99, 0x33,
0x52, 0x02, 0x89, 0x33, 0x40, 0x2f, 0x99, 0x3b, 0x13, 0x02, 0x89, 0x3b, 0x40, 0x2d, 0x99, 0x33,
0x42, 0x02, 0x89, 0x33, 0x40, 0x2d, 0x99, 0x3b, 0x57, 0x03, 0x89, 0x3b, 0x40, 0x5e, 0x99, 0x3b,
0x5c, 0x02, 0x89, 0x3b, 0x40, 0x5e, 0x99, 0x3b, 0x5b, 0x02, 0x89, 0x3b, 0x40, 0x2e, 0x99, 0x3b,
0x4e, 0x02, 0x89, 0x3b, 0x40, 0x2e, 0x99, 0x33, 0x52, 0x02, 0x89, 0x33, 0x40, 0x5d, 0x99, 0x3b,
0x47, 0x03, 0x89, 0x3b, 0x40, 0x2d, 0x99, 0x3b, 0x50, 0x02, 0x89, 0x3b, 0x40, 0x5f, 0x99, 0x3b,
0x52, 0x02, 0x89, 0x3b, 0x40, 0x2e, 0x99, 0x33, 0x47, 0x02, 0x89, 0x33, 0x40, 0x2e, 0x99, 0x33,
0x52, 0x02, 0x89, 0x33, 0x40, 0x5e, 0x99, 0x33, 0x42, 0x02, 0x89, 0x33, 0x40, 0x2e, 0x99, 0x3b,
0x5b, 0x02, 0x89, 0x3b, 0x40, 0x81, 0x3e, 0x99, 0x3b, 0x57, 0x02, 0x89, 0x3b, 0x40, 0x2d, 0x99,
0x3b, 0x57, 0x03, 0x89, 0x3b, 0x40, 0x2e, 0x99, 0x3b, 0x65, 0x02, 0x89, 0x3b, 0x40, 0x5e, 0x99,
0x3b, 0x6c, 0x02, 0x89, 0x3b, 0x40, 0x2d, 0x99, 0x3b, 0x57, 0x03, 0x89, 0x3b, 0x40, 0x2e, 0x99,
0x33, 0x42, 0x03, 0x89, 0x33, 0x40, 0x5d, 0x99, 0x33, 0x57, 0x02, 0x89, 0x33, 0x40, 0x2e, 0x99,
0x33, 0x52, 0x02, 0x89, 0x33, 0x40, 0x5f, 0x99, 0x33, 0x47, 0x02, 0x89, 0x33, 0x40, 0x2d, 0x99,
0x33, 0x47, 0x02, 0x89, 0x33, 0x40, 0x2e, 0x99, 0x3b, 0x4e, 0x02, 0x89, 0x3b, 0x40, 0x2e, 0x99,
0x3b, 0x57, 0x02, 0x89, 0x3b, 0x40, 0x2e, 0x99, 0x33, 0x47, 0x02, 0x89, 0x33, 0x40, 0x2e, 0x99,
0x3b, 0x50, 0x02, 0x89, 0x3b, 0x40, 0x2d, 0x99, 0x33, 0x47, 0x03, 0x89, 0x33, 0x40, 0x2e, 0x99,
0x3b, 0x36, 0x02, 0x89, 0x3b, 0x40, 0x5e, 0x99, 0x3b, 0x5b, 0x02, 0x89, 0x3b, 0x40, 0x2e, 0x99,
0x3b, 0x50, 0x03, 0x89, 0x3b, 0x40, 0x5d, 0x99, 0x3b, 0x5c, 0x02, 0x89, 0x3b, 0x40, 0x2d, 0x99,
0x33, 0x31, 0x03, 0x89, 0x33, 0x40, 0x2e, 0x99, 0x35, 0x5b, 0x02, 0x89, 0x35, 0x40, 0x5e, 0x99,
0x35, 0x42, 0x03, 0x89, 0x35, 0x40, 0x2d, 0x99, 0x35, 0x52, 0x03, 0x89, 0x35, 0x40, 0x2d, 0x99,
0x33, 0x4e, 0x02, 0x89, 0x33, 0x40, 0x2e, 0x99, 0x35, 0x47, 0x03, 0x89, 0x35, 0x40, 0x5d, 0x99,
0x35, 0x4e, 0x03, 0x89, 0x35, 0x40, 0x5d, 0x99, 0x35, 0x60, 0x02, 0x89, 0x35, 0x40, 0x5e, 0x99,
0x35, 0x47, 0x03, 0x89, 0x35, 0x40, 0x2d, 0x99, 0x35, 0x59, 0x02, 0x89, 0x35, 0x40, 0x2e, 0x99,
0x33, 0x32, 0x02, 0x89, 0x33, 0x40, 0x2e, 0x99, 0x35, 0x36, 0x03, 0x89, 0x35, 0x40, 0x2d, 0x99,
0x33, 0x1c, 0x03, 0x89, 0x33, 0x40, 0x2d, 0x99, 0x35, 0x62, 0x02, 0x89, 0x35, 0x40, 0x2d, 0x99,
0x33, 0x1d, 0x03, 0x89, 0x33, 0x40, 0x2e, 0x99, 0x35, 0x47, 0x03, 0x89, 0x35, 0x40, 0x2d, 0x99,
0x33, 0x47, 0x03, 0x89, 0x33, 0x40, 0x2d, 0x99, 0x33, 0x52, 0x02, 0x89, 0x33, 0x40, 0x2e, 0x99,
0x35, 0x5b, 0x03, 0x89, 0x35, 0x40, 0x5d, 0x99, 0x35, 0x57, 0x03, 0x89, 0x35, 0x40, 0x2d, 0x99,
0x33, 0x47, 0x02, 0x89, 0x33, 0x40, 0x2e, 0x99, 0x35, 0x5b, 0x03, 0x89, 0x35, 0x40, 0x5d, 0x99,
0x35, 0x5b, 0x02, 0x89, 0x35, 0x40, 0x2e, 0x99, 0x35, 0x49, 0x02, 0x89, 0x35, 0x40, 0x2e, 0x99,
0x33, 0x4b, 0x02, 0x89, 0x33, 0x40, 0x2e, 0x99, 0x35, 0x4e, 0x03, 0x89, 0x35, 0x40, 0x5d, 0x99,
0x35, 0x59, 0x03, 0x89, 0x35, 0x40, 0x2d, 0x99, 0x33, 0x36, 0x02, 0x89, 0x33, 0x40, 0x2e, 0x99,
0x33, 0x52, 0x02, 0x89, 0x33, 0x40, 0x2e, 0x99, 0x35, 0x47, 0x02, 0x89, 0x35, 0x40, 0x2e, 0x99,
0x33, 0x42, 0x02, 0x89, 0x33, 0x40, 0x2f, 0x99, 0x35, 0x13, 0x03, 0x89, 0x35, 0x40, 0x2c, 0x99,
0x35, 0x4e, 0x02, 0x89, 0x35, 0x40, 0x2e, 0x99, 0x33, 0x3b, 0x02, 0x89, 0x33, 0x40, 0x2e, 0x99,
0x35, 0x57, 0x02, 0x89, 0x35, 0x40, 0x2e, 0x99, 0x33, 0x32, 0x02, 0x89, 0x33, 0x40, 0x2f, 0x99,
0x35, 0x4e, 0x02, 0x89, 0x35, 0x40, 0x2e, 0x99, 0x35, 0x4b, 0x02, 0x89, 0x35, 0x40, 0x2d, 0x99,
0x33, 0x42, 0x03, 0x89, 0x33, 0x40, 0x2f, 0x99, 0x35, 0x13, 0x02, 0x89, 0x35, 0x40, 0x2d, 0x99,
0x33, 0x3b, 0x02, 0x89, 0x33, 0x40, 0x2d, 0x99, 0x35, 0x57, 0x02, 0x89, 0x35, 0x40, 0x2d, 0x99,
0x33, 0x52, 0x03, 0x89, 0x33, 0x40, 0x2e, 0x99, 0x35, 0x32, 0x02, 0x89, 0x35, 0x40, 0x2e, 0x99,
0x35, 0x4b, 0x02, 0x89, 0x35, 0x40, 0x2e, 0x99, 0x33, 0x47, 0x02, 0x89, 0x33, 0x40, 0x2d, 0x99,
0x33, 0x5c, 0x03, 0x89, 0x33, 0x40, 0x2e, 0x99, 0x35, 0x5b, 0x02, 0x89, 0x35, 0x40, 0x2e, 0x99,
0x33, 0x57, 0x02, 0x89, 0x33, 0x40, 0x2d, 0x99, 0x35, 0x57, 0x03, 0x89, 0x35, 0x40, 0x2d, 0x99,
0x33, 0x57, 0x03, 0x89, 0x33, 0x40, 0x2e, 0x99, 0x33, 0x57, 0x02, 0x89, 0x33, 0x40, 0x5d, 0x99,
0x35, 0x57, 0x02, 0x89, 0x35, 0x40, 0x5f, 0x99, 0x35, 0x42, 0x02, 0x89, 0x35, 0x40, 0x2e, 0x99,
0x33, 0x65, 0x02, 0x89, 0x33, 0x40, 0x2e, 0x99, 0x35, 0x4e, 0x02, 0x89, 0x35, 0x40, 0x2e, 0x99,
0x35, 0x62, 0x02, 0x89, 0x35, 0x40, 0x2e, 0x99, 0x33, 0x2b, 0x02, 0x89, 0x33, 0x40, 0x2e, 0x99,
0x35, 0x57, 0x02, 0x89, 0x35, 0x40, 0x2e, 0x99, 0x35, 0x4e, 0x02, 0x89, 0x35, 0x40, 0x2e, 0x99,
0x33, 0x52, 0x02, 0x89, 0x33, 0x40, 0x2e, 0x99, 0x35, 0x52, 0x02, 0x89, 0x35, 0x40, 0x2e, 0x99,
0x33, 0x13, 0x03, 0x89, 0x33, 0x40, 0x2d, 0x99, 0x3b, 0x62, 0x02, 0x89, 0x3b, 0x40, 0x2e, 0x99,
0x35, 0x65, 0x02, 0x89, 0x35, 0x40, 0x2d, 0x99, 0x33, 0x60, 0x03, 0x89, 0x33, 0x40, 0x00, 0xff,
0x2f, 0x00, 0x4d, 0x54, 0x72, 0x6b, 0x00, 0x00, 0x02, 0x94, 0x00, 0xff, 0x03, 0x06, 0x43, 0x4f,
0x4e, 0x47, 0x41, 0x53, 0x00, 0xb9, 0x00, 0x00, 0x00, 0xff, 0x58, 0x04, 0x04, 0x02, 0x60, 0x08,
0x00, 0xff, 0x51, 0x03, 0x06, 0x10, 0x26, 0x81, 0x11, 0x99, 0x3e, 0x56, 0x14, 0x89, 0x3e, 0x40,
0x7b, 0x99, 0x3f, 0x58, 0x11, 0x89, 0x3f, 0x40, 0x1f, 0x99, 0x3f, 0x5a, 0x11, 0x89, 0x3f, 0x40,
0x81, 0x2f, 0x99, 0x3e, 0x57, 0x15, 0x89, 0x3e, 0x40, 0x4b, 0x99, 0x3f, 0x3e, 0x14, 0x89, 0x3f,
0x40, 0x1d, 0x99, 0x40, 0x58, 0x15, 0x89, 0x40, 0x40, 0x1b, 0x99, 0x40, 0x5f, 0x16, 0x89, 0x40,
0x40, 0x81, 0x29, 0x99, 0x3e, 0x5c, 0x14, 0x89, 0x3e, 0x40, 0x4c, 0x99, 0x3e, 0x4e, 0x15, 0x89,
0x3e, 0x40, 0x1b, 0x99, 0x3f, 0x4b, 0x11, 0x89, 0x3f, 0x40, 0x1f, 0x99, 0x3f, 0x56, 0x12, 0x89,
0x3f, 0x40, 0x81, 0x2d, 0x99, 0x3e, 0x58, 0x14, 0x89, 0x3e, 0x40, 0x4e, 0x99, 0x3f, 0x56, 0x13,
0x89, 0x3f, 0x40, 0x1d, 0x99, 0x40, 0x4b, 0x12, 0x89, 0x40, 0x40, 0x1e, 0x99, 0x40, 0x5d, 0x13,
0x89, 0x40, 0x40, 0x81, 0x2b, 0x99, 0x3e, 0x62, 0x18, 0x89, 0x3e, 0x40, 0x79, 0x99, 0x3f, 0x3e,
0x0d, 0x89, 0x3f, 0x40, 0x23, 0x99, 0x3f, 0x53, 0x11, 0x89, 0x3f, 0x40, 0x81, 0x2f, 0x99, 0x3e,
0x60, 0x16, 0x89, 0x3e, 0x40, 0x7a, 0x99, 0x40, 0x48, 0x0d, 0x89, 0x40, 0x40, 0x23, 0x99, 0x40,
0x56, 0x12, 0x89, 0x40, 0x40, 0x81, 0x32, 0x99, 0x3e, 0x5f, 0x15, 0x89, 0x3e, 0x40, 0x4a, 0x99,
0x3e, 0x52, 0x17, 0x89, 0x3e, 0x40, 0x18, 0x99, 0x3f, 0x41, 0x0c, 0x89, 0x3f, 0x40, 0x28, 0x99,
0x3f, 0x56, 0x10, 0x89, 0x3f, 0x40, 0x52, 0x99, 0x3e, 0x5d, 0x18, 0x89, 0x3e, 0x40, 0x3c, 0x99,
0x3e, 0x58, 0x17, 0x89, 0x3e, 0x40, 0x2b, 0x99, 0x3e, 0x5a, 0x1c, 0x89, 0x3e, 0x40, 0x3a, 0x99,
0x3f, 0x58, 0x0e, 0x89, 0x3f, 0x40, 0x21, 0x99, 0x3f, 0x4e, 0x11, 0x89, 0x3f, 0x40, 0x81, 0x2c,
0x99, 0x3e, 0x60, 0x18, 0x89, 0x3e, 0x40, 0x48, 0x99, 0x3e, 0x5d, 0x15, 0x89, 0x3e, 0x40, 0x1b,
0x99, 0x3f, 0x33, 0x0c, 0x89, 0x3f, 0x40, 0x24, 0x99, 0x3f, 0x53, 0x16, 0x89, 0x3f, 0x40, 0x81,
0x2a, 0x99, 0x3e, 0x60, 0x16, 0x89, 0x3e, 0x40, 0x4a, 0x99, 0x3f, 0x4b, 0x10, 0x89, 0x3f, 0x40,
0x20, 0x99, 0x40, 0x56, 0x12, 0x89, 0x40, 0x40, 0x1f, 0x99, 0x40, 0x5f, 0x13, 0x89, 0x40, 0x40,
0x81, 0x2c, 0x99, 0x3e, 0x5f, 0x18, 0x89, 0x3e, 0x40, 0x48, 0x99, 0x3e, 0x30, 0x12, 0x89, 0x3e,
0x40, 0x1e, 0x99, 0x3f, 0x53, 0x0f, 0x89, 0x3f, 0x40, 0x21, 0x99, 0x3f, 0x58, 0x13, 0x89, 0x3f,
0x40, 0x81, 0x2c, 0x99, 0x3e, 0x5a, 0x17, 0x89, 0x3e, 0x40, 0x49, 0x99, 0x3e, 0x56, 0x16, 0x89,
0x3e, 0x40, 0x1b, 0x99, 0x40, 0x48, 0x10, 0x89, 0x40, 0x40, 0x20, 0x99, 0x40, 0x56, 0x17, 0x89,
0x40, 0x40, 0x81, 0x29, 0x99, 0x3e, 0x5f, 0x16, 0x89, 0x3e, 0x40, 0x7a, 0x99, 0x3f, 0x3e, 0x0c,
0x89, 0x3f, 0x40, 0x24, 0x99, 0x3f, 0x56, 0x11, 0x89, 0x3f, 0x40, 0x82, 0x10, 0x99, 0x3f, 0x56,
0x11, 0x89, 0x3f, 0x40, 0x1f, 0x99, 0x40, 0x56, 0x11, 0x89, 0x40, 0x40, 0x20, 0x99, 0x40, 0x5c,
0x12, 0x89, 0x40, 0x40, 0x81, 0x2c, 0x99, 0x3e, 0x5d, 0x18, 0x89, 0x3e, 0x40, 0x48, 0x99, 0x3e,
0x5a, 0x0e, 0x89, 0x3e, 0x40, 0x22, 0x99, 0x3f, 0x4b, 0x10, 0x89, 0x3f, 0x40, 0x20, 0x99, 0x3f,
0x5a, 0x12, 0x89, 0x3f, 0x40, 0x81, 0x2d, 0x99, 0x3e, 0x58, 0x16, 0x89, 0x3e, 0x40, 0x7b, 0x99,
0x40, 0x53, 0x0f, 0x89, 0x40, 0x40, 0x21, 0x99, 0x40, 0x58, 0x14, 0x89, 0x40, 0x40, 0x81, 0x2c,
0x99, 0x3e, 0x58, 0x16, 0x89, 0x3e, 0x40, 0x4a, 0x99, 0x3e, 0x5a, 0x17, 0x89, 0x3e, 0x40, 0x19,
0x99, 0x3f, 0x46, 0x0a, 0x89, 0x3f, 0x40, 0x26, 0x99, 0x3f, 0x56, 0x12, 0x89, 0x3f, 0x40, 0x56,
0x99, 0x3f, 0x57, 0x14, 0x89, 0x3f, 0x40, 0x81, 0x26, 0x99, 0x3f, 0x4b, 0x0d, 0x89, 0x3f, 0x40,
0x03, 0x99, 0x3e, 0x5c, 0x10, 0x99, 0x3f, 0x5f, 0x01, 0x89, 0x3e, 0x40, 0x11, 0x99, 0x3e, 0x5c,
0x01, 0x89, 0x3f, 0x40, 0x12, 0x89, 0x3e, 0x40, 0x81, 0x59, 0x99, 0x3e, 0x53, 0x12, 0x89, 0x3e,
0x40, 0x4e, 0x99, 0x3e, 0x61, 0x13, 0x89, 0x3e, 0x40, 0x1d, 0x99, 0x3f, 0x5d, 0x12, 0x89, 0x3f,
0x40, 0x1e, 0x99, 0x3f, 0x56, 0x13, 0x89, 0x3f, 0x40, 0x81, 0x2d, 0x99, 0x3e, 0x5f, 0x15, 0x89,
0x3e, 0x40, 0x4c, 0x99, 0x3e, 0x56, 0x13, 0x89, 0x3e, 0x40, 0x1c, 0x99, 0x40, 0x52, 0x10, 0x89,
0x40, 0x40, 0x21, 0x99, 0x40, 0x56, 0x10, 0x89, 0x40, 0x40, 0x00, 0xff, 0x2f, 0x00
};

